<svg width="168" height="26" fill="none" viewBox="0 0 168 26" xmlns="http://www.w3.org/2000/svg">
  <path fill-rule="evenodd" clip-rule="evenodd" d="M96.9 20.436c-3.1 0-5.2-1.785-5.3-3.968h3.1c.1.893 1 1.587 2.2 1.587 1.2 0 1.9-.495 1.9-1.29 0-2.182-6.9-.793-6.9-5.257 0-1.984 1.8-3.67 4.8-3.67 2.9 0 4.7 1.587 4.9 3.968h-2.9c-.1-.893-.8-1.588-2-1.588-1.1 0-1.7.496-1.7 1.19 0 2.183 6.8.794 6.8 5.259-.1 2.182-2 3.77-4.9 3.77zm7.8-9.722h-1.5v-2.48h1.5V5.258h3.1v2.976h2.7v2.48h-2.7v5.853c0 .794.3 1.19 1.3 1.19h1.4v2.58h-1.9c-2.3 0-3.9-.992-3.9-3.77v-5.853zm12.8-2.778c2 0 3.3.893 4 1.885V8.135h3.1v12.103h-3.1v-1.786c-.7 1.092-2.1 1.984-4 1.984-3.1 0-5.5-2.48-5.5-6.25s2.4-6.25 5.5-6.25zm.8 2.679c-1.7 0-3.2 1.19-3.2 3.472s1.6 3.572 3.2 3.572c1.7 0 3.2-1.29 3.2-3.572 0-2.182-1.5-3.472-3.2-3.472zm9.8.1h-1.5v-2.48h1.5V5.257h3.1v2.976h2.7v2.48h-2.7v5.853c0 .794.3 1.19 1.3 1.19h1.4v2.58H132c-2.3 0-3.9-.992-3.9-3.77v-5.853zm7.8-5.755c0-.992.8-1.785 1.9-1.785 1.1 0 1.9.793 1.9 1.785 0 .992-.8 1.786-1.9 1.786-1.2 0-1.9-.794-1.9-1.786zm.3 3.175h3.1v12.103h-3.1V8.135zm11.5 12.301c-3.5 0-6.2-2.48-6.2-6.25 0-3.869 2.8-6.25 6.3-6.25s6.3 2.381 6.3 6.25c0 3.87-2.8 6.25-6.4 6.25zm0-2.678c1.6 0 3.2-1.19 3.2-3.571 0-2.381-1.5-3.572-3.1-3.572s-3.1 1.19-3.1 3.572c0 2.48 1.4 3.57 3 3.57zm17.2-4.167c0-1.984-1.1-2.976-2.7-2.976-1.7 0-2.8 1.091-2.8 2.976v6.647h-3.1V8.135h3.1v1.488c.8-.992 2.1-1.687 3.7-1.687 2.8 0 4.9 1.786 4.9 5.16v7.142h-3.1v-6.647z" fill="#fff"/>
  <path d="M35.7 15.575c.5 1.489 1.7 2.183 3.4 2.183s2.9-.794 2.9-2.183c0-.992-.6-1.587-2.1-1.884l-3.1-.695c-2.5-.595-4.4-1.885-4.4-4.663 0-3.075 2.6-5.258 6.2-5.258 3.9 0 6.2 2.084 6.7 4.96h-3.4c-.4-1.09-1.4-1.983-3.2-1.983-1.6 0-2.7.793-2.7 1.984 0 .992.6 1.587 1.9 1.885l3.1.694c2.8.595 4.5 2.183 4.5 4.762 0 3.274-2.7 5.258-6.4 5.258-3.8 0-6.6-1.885-7.1-5.159h3.7v.1zM47.9 2.381h3.5v6.746c.7-.794 1.9-1.389 3.4-1.389 2.8 0 4.4 1.786 4.4 4.564v8.134h-3.5v-7.34c0-1.29-.7-2.183-2-2.183-1.1 0-2 .595-2.3 1.686v7.837h-3.5V2.381zM67.4 20.734c-3.6 0-6.1-2.678-6.1-6.448 0-3.87 2.5-6.548 6.1-6.548 3.6 0 6.1 2.679 6.1 6.548 0 3.77-2.5 6.448-6.1 6.448zm0-10.119c-1.7 0-2.7 1.488-2.7 3.572 0 2.083 1 3.571 2.7 3.571 1.7 0 2.7-1.488 2.7-3.571 0-1.985-1-3.572-2.7-3.572zM79.2 25h-3.5V8.036h3.5v.992c.6-.695 1.8-1.29 3.1-1.29 3.6 0 5.7 2.976 5.7 6.548 0 3.571-2.1 6.448-5.7 6.448-1.3 0-2.6-.595-3.1-1.29V25zm0-8.73c.4.893 1.3 1.488 2.4 1.488 1.9 0 3-1.488 3-3.472s-1.1-3.473-3-3.473c-1 0-1.9.596-2.4 1.489v3.968z" stroke="#fff" stroke-miterlimit="10"/>
  <path d="M23.1 4.365h-22c-.6 0-1.1.496-1.1 1.091v4.365c0 1.39.9 2.58 2.2 3.076v10.02c0 .595.5 1.09 1.1 1.09h17.6c.6 0 1.1-.495 1.1-1.09v-10.02c1.3-.496 2.2-1.687 2.2-3.076V5.456c0-.595-.5-1.09-1.1-1.09zm-7.7 2.183h2.2V9.82c0 .596-.5 1.092-1.1 1.092-.6 0-1.1-.496-1.1-1.092V6.548zm-4.5 0h2.2V9.82c0 .596-.5 1.092-1.1 1.092-.6 0-1.1-.496-1.1-1.092V6.548zm-4.4 0h2.2V9.82c0 .596-.5 1.092-1.1 1.092-.6 0-1.1-.496-1.1-1.092V6.548zm-3.3 4.365c-.6 0-1.1-.496-1.1-1.092V6.548h2.2V9.82c0 .596-.5 1.092-1.1 1.092zm11.1 10.912H9.9v-2.182c0-1.19 1-2.183 2.2-2.183 1.2 0 2.2.992 2.2 2.183v2.182zm5.5 0h-3.3v-2.182c0-2.381-2-4.365-4.4-4.365-2.4 0-4.4 1.984-4.4 4.365v2.182H4.4v-8.928c.4-.199.8-.397 1.1-.695 1.3 1.092 3.2 1.092 4.4 0 1.3 1.092 3.2 1.092 4.4 0 1.3 1.092 3.2 1.092 4.4 0 .3.298.7.496 1.1.695v8.928zM22 9.821c0 .596-.5 1.092-1.1 1.092-.6 0-1.1-.496-1.1-1.092V6.548H22V9.82zM3.6 2.183h17.3c.6 0 1.1-.496 1.1-1.092C22 .496 21.5 0 20.9 0H3.6C3 0 2.5.496 2.5 1.091c0 .596.5 1.092 1.1 1.092z" fill="#fff"/>
</svg>